<?xml version="1.0" encoding="utf-8"?>
<!-- Generator: Adobe Illustrator 19.1.0, SVG Export Plug-In . SVG Version: 6.00 Build 0)  -->
<svg version="1.1" id="Layer_1" xmlns="http://www.w3.org/2000/svg" xmlns:xlink="http://www.w3.org/1999/xlink" x="0px" y="0px"
	 viewBox="0 0 403.7 160.2" style="enable-background:new 0 0 403.7 160.2;" xml:space="preserve">
<style type="text/css">
	.st0{fill:#8C2004;}
	.st1{fill:#5C8727;}
	.st2{fill:#FFFFFF;}
	.st3{fill:#FBB040;}
	.st4{fill:#EC008C;}
</style>
<path class="st0" d="M123.3,94.9c0.3-0.9,0.6-1.8,0.9-2.7V1.3H62.7H1.2v90.9c0.3,0.9,0.6,1.8,0.9,2.7l60.6-41L123.3,94.9z"/>
<path class="st1" d="M4.3,101.1c16.1,43.1,31.1,41.6,58.4,57.7c27.2-16.1,42.3-14.6,58.4-57.7L62.8,61.8L4.3,101.1z"/>
<g>
	<path class="st2" d="M61.4,89.1c0,0,0-0.7-0.6-0.8c0,0-3.3-2-9.8-2c-6.6,0-12,3-12,3s-0.6,0.3-0.6,1v35.5c0,0,0,0.7,0.6,0.5
		c0,0,6.6-2.9,13.3-2.6c6.7,0.2,8.6,1.4,8.6,1.4s0.6,0.4,0.6-0.3V89.1z"/>
	<path class="st2" d="M64,89.1c0,0,0-0.7,0.6-0.8c0,0,3.3-2,9.8-2c6.6,0,12,3,12,3s0.6,0.3,0.6,1v35.5c0,0,0,0.7-0.6,0.5
		c0,0-6.6-2.9-13.3-2.6c-6.7,0.2-8.6,1.4-8.6,1.4s-0.6,0.4-0.6-0.3V89.1z"/>
	<path class="st3" d="M93,95.4c0,0,0-0.7-0.6-1l-2.9-1.8c0,0-0.1,0-0.2-0.1v35c0,0,0,0.7-0.7,1.1c-0.7,0.4-1.5,0.1-1.5,0.1
		s-9.3-4.1-15.9-2.9c-5.3,1-7.8,2.2-8.6,2.7c-0.8-0.4-3.3-1.7-8.6-2.7c-6.6-1.3-15.9,2.9-15.9,2.9s-0.8,0.3-1.5-0.1
		c-0.7-0.4-0.7-1.1-0.7-1.1v-35c-0.1,0-0.2,0.1-0.2,0.1l-2.9,1.8c-0.6,0.4-0.6,1-0.6,1l0,37.6c0,0.7,0.6,0.9,0.6,0.9l2.6-0.1
		c0,0,3.3-3.9,15.9-3.9c5.6,0,8.6,3,8.6,3h0.6h4.3h0.6c0,0,3-3,8.5-3c12.6,0,15.9,3.9,15.9,3.9l2.6,0.1c0,0,0.6-0.3,0.6-0.9L93,95.4
		z"/>
</g>
<g>
	<path class="st3" d="M110.1,38.8l-1.8-1.4l-0.3,2.4l-1.1-2.1l-1.8,3l2,0.3c0,0-1.7,2-3.8,1.2c-0.5-0.2-0.9-0.6-1.2-1
		c0.2,0.1,0.8,0.1,1.1-0.3c0.5-0.5-0.2-1.1-0.2-1.1s-0.1,0.4-0.6,0.5c-0.5,0-0.5-0.7-0.5-0.7s0.4-0.1,0.4-0.4c0-0.2-0.3-0.5-0.3-0.5
		s0.6-1.4,1.5-1c0.9,0.4,0,1.3,0,1.3s1.2-0.2,1.7-0.6c0.5-0.5,0.4-1.5-0.8-1.8c-1.2-0.3-2.1,0.7-2.1,0.7s0.5-1,0.7-1.9
		c0.1-0.9-0.5-1.8-0.5-1.8s-1.1,0.6-1.4,1.1c-0.2,0.5-0.2,2.4-0.2,2.4s-1-1.4-1.6-1.6c-0.4-0.1-1.2-0.1-1.4,0.9
		c-0.1,0.9,0.9,1.7,0.9,1.7s0-0.5,0.3-0.9c0.3-0.3,0.7-0.1,1,0.3c0.3,0.3,0.3,0.9,0.3,0.9s-0.4,0.3-0.4,0.5c0,0.2,0.2,0.5,0.2,0.5
		s-0.2,0.5-0.7,0.3c-0.4-0.1-0.2-1-0.2-1s-0.5,0.3-0.8,0.6c-0.3,0.2-0.1,0.7,0.3,1.1c0,0,0,0,0,0c-0.6,0.2-1.3,0.4-2,0.3
		c-1-0.2-1.7-0.8-2.1-1.3l-0.5-1.9l1.8,1.4l0.4-3.7l-2.3,1.4l1.1-2.5h-3.2l0.9,2.5L90.6,35l0.3,3.8l1.9-1.3l-0.6,1.8
		c-0.5,0.6-1.3,1.3-2.9,1.3c-0.7,0-1.2,0-1.6-0.2c0.2-0.1,0.4-0.2,0.5-0.3c0.4-0.3,0.7-0.8,0.4-1.1c-0.3-0.2-0.8-0.6-0.8-0.6
		s0.2,0.8-0.2,0.9c-0.4,0.1-0.6-0.4-0.6-0.4s0.2-0.4,0.2-0.5c0-0.2-0.4-0.5-0.4-0.5s0-0.5,0.3-0.9c0.3-0.4,0.7-0.6,1-0.2
		c0.3,0.4,0.2,0.9,0.2,0.9s1.1-0.8,0.9-1.7c-0.1-0.9-1-1-1.4-0.9c-0.6,0.2-1.6,1.6-1.6,1.6s0.1-1.8-0.2-2.4
		c-0.2-0.5-1.4-1.1-1.4-1.1s-0.7,0.8-0.5,1.8c0.1,0.9,0.7,2,0.7,2s-0.9-0.9-2.1-0.7c-1.2,0.2-1.4,1.3-0.9,1.8
		c0.5,0.5,1.7,0.6,1.7,0.6s-0.8-0.9,0.1-1.3c0.9-0.4,1.5,1,1.5,1s-0.4,0.3-0.4,0.5c0.1,0.3,0.4,0.4,0.4,0.4s0,0.7-0.5,0.7
		c-0.5-0.1-0.5-0.5-0.5-0.5s-0.7,0.6-0.2,1.1c0.5,0.5,1.1,0.3,1.2,0.2c-0.4,0.4-0.9,0.8-1.8,0.9c-2.5,0.4-3.6-1.5-3.6-1.5l2,0
		l-1.4-3L79.1,39l-0.3-2.2L77,37.6l4.9,9.5h0.9c1.5-1.3,5.2-2.5,10.5-2.5c5.3,0,9.1,1.3,10.6,2.5h0.9L110.1,38.8z"/>
	<g>
		<path class="st4" d="M112.4,25.4"/>
	</g>
	<g>
		<g>
			<path class="st2" d="M107.1,31.1c-0.1-0.1-0.1-0.2-0.2-0.2c-0.2-0.1-0.4-0.3-0.4-0.6c0-0.3-0.3-0.9-0.7-0.9c-0.1,0-0.6,0.3-1.8,2
				l0,0.1c-0.2,0.3-0.3,0.4-0.4,0.5l0.8,0.2c0.2,0.2,0.8,1.1,0.9,2.3c0.2,0.1,0.5,0.2,0.7,0.3c0.2-0.3,0.4-0.6,0.6-0.9
				c0.1-0.3,0.4-0.6,0.5-0.8c0.1-0.2,0.2-0.2,0.3-0.4c0.2-0.2,0.2-0.2,0.2-0.3C107.7,32,107.3,31.5,107.1,31.1L107.1,31.1z"/>
			<path class="st2" d="M82.1,29.4c-0.4-0.1-0.6,0.2-0.9,0.6c0,0.1-0.1,0.1-0.1,0.2c-0.4,0.5-1,1.7-1,2c0,0.3,0.1,0.6,0.2,0.9
				c0.2,0.2,0.3,0.5,0.5,0.7c0.1,0.1,0.3,0.3,0.4,0.4c0.1,0.1,0.1,0.3,0.1,0.4c0.2-0.1,0.4-0.2,0.7-0.2c0.2-1.2,0.8-2.1,1-2.3
				l0.5-0.1C83.1,30.9,82.6,29.6,82.1,29.4z"/>
			<path class="st2" d="M88.8,18.5c0.1,0,0.1,0.1,0.2,0.1c-0.1-0.2-0.2-0.7,0-1.3c0.1-0.1,0.1-0.3,0.3-0.3c0.2,0,0.2,0.2,0.3,0.4
				c0.1,0.5,0.2,1.5,1.2,1.9c0.6,0.2,1,0.3,1.3,0.4c0.6,0.2,0.9,0.3,1.2,0.6c0.2,0.2,0.4,0.5,0.5,0.8c0.1,0.1,0.2,0.3,0.3,0.4
				c0.1-0.1,0.2-0.2,0.3-0.3c0.4-0.4,1-0.9,1.7-1.2c1.4-0.5,2.3-1,2.6-1.4c0.6-1,0.2-2,0-2.5l0-0.1c0-0.1-0.1-0.2,0-0.3
				c0-0.1,0.1-0.1,0.2-0.1c0.1,0,0.1,0,1,1.6c0,0,0.1,0,0.2,0c0.2,0,0.3-0.1,0.5-0.2c0.3-0.2,0.1-0.7,0.1-0.7c0-0.1,0-0.2,0.1-0.2
				c0.1-0.1,0.2,0,0.2,0c0.1,0.1,0.4,0.4,0.5,0.4c0.1,0,0.5-0.4,0.8-0.8c0.1-0.1,0.2-0.1,0.2,0c0.1,0.1,0.1,0.2,0.1,0.2
				c-0.1,0.2-0.9,1.5-1.5,1.8c-0.4,0.2-1,0.4-1.2,0.5c-0.1,0.3-0.7,1.5-1.9,2c-1.2,0.5-2.2,1-2.7,1.7c-0.2,0.3-0.5,0.8-0.6,0.9
				c0,1.4,0.1,4.6-0.3,5C94.1,28,94.1,28,94,28c-0.3,0-0.4-0.4-0.5-1.8c0-0.7-0.1-1.5-0.2-1.8c-0.2-0.4-0.2-1-0.2-1.4
				c-0.1-0.7-0.1-1.4-0.5-1.9C92,20.3,91.3,20,91.1,20c-0.1,0-0.1,0-0.1,0c0,0.4,0,0.6,0,0.6c0,0.1,0,0.1-0.1,0.2
				c-0.1,0-0.1,0-0.2,0c0,0-1-1.1-1.5-1.4c-0.3-0.2-0.9-0.6-1.5-0.9c0,0.3,0.1,0.6,0.1,0.9c0.1,0.4,0.1,0.8,0.1,1.1
				c0.1,0.6,0.3,1.2,0.4,1.7c0.1,0.2,0.1,0.4,0.2,0.6c0.1,0.1,0.2,0.2,0.2,0.4c0.1,0.1,1.6,0.9,1.5,1.2c-0.3,0.2-1.9-0.7-1.7-0.2
				c0,0.3,0,0.2,0.1,0.5l0.1,0.6c0,0.4,0.2,0.7,0.2,1c0,0.2,0.1,0.4,0.1,0.6c0.1,0.4,0.2,0.7,0.3,1.1c0.1,0.3,0.1,0.7,0.1,1
				c0,0.4,0,0.8,0.1,1.1c0,0.3,0.1,0.6,0.1,0.9c0,0.1,0,0.1,0,0.2c0,0.2,0,0.5,0.1,0.7c0.1,0.2,0.1,0.5,0.2,0.7
				c0,0.2,0.1,0.4,0.1,0.6c0.2,0.1,0.3,0.2,0.5,0.4l1.5-2.2h3.2l1.5,2.3c0.1-0.1,0.3-0.2,0.5-0.4c0-0.1,0-0.2,0.1-0.3
				c0.3-1.2,0.5-2.4,0.7-3.6l1.1-4.8c0,0,0.1-0.2,0.2-0.4c0-0.1,0.1-0.2,0.1-0.3c0-0.1,0.1-0.1,0.1-0.2c0.1-0.2,0.1-0.4,0.2-0.5
				c0.1-0.4,0.4-2.6,0.4-2.6s-0.9,0.3-0.9-0.1c0-0.1,0.8-0.6,1-0.8c0.1-0.2,0.2-0.9,0.2-0.9l2-2.4c0,0,1-2,1-2.6
				c0-1.2-0.4-2.6-0.4-2.6c-0.2-0.4-0.4-0.8-0.5-1.1c-0.1-0.2-0.2-0.5-0.4-0.6c-0.2-0.2-0.5-0.3-0.7-0.5c-0.3-0.2-0.7-0.4-1-0.5
				c-0.2-0.1-0.3-0.1-0.5-0.1c-0.2,0-0.4,0-0.6,0c-0.4,0-0.8,0-1.1,0.1c-0.1,0-0.3,0.1-0.4,0.2c-0.7,0.3-1.5,0.7-2.2,1
				c-0.3,0.4-0.4,0.6-0.4,1.9c-0.1,1.5-0.4,4-0.4,4s-0.3,0.3-0.4-0.2c-0.2-1-0.5-2.6-0.5-3.5c0-1-0.5-1.9-0.7-2.3
				c-0.4-0.2-1-0.7-1.3-0.9c-0.5-0.3-2.2-0.4-2.7-0.2c-0.4,0.1-0.8,0.2-1.2,0.4c-0.2,0.1-0.4,0.2-0.5,0.4c-0.2,0.2-0.4,0.3-0.6,0.5
				c-0.1,0.2-0.3,0.3-0.4,0.5c-0.1,0.2-0.2,0.5-0.2,0.7c0,0.2,0,0.2,0,0.4c0,0.4-0.4,0.6-0.5,1.1c-0.1,0.4-0.1,0.9-0.1,1.3
				c0,1.3,0.6,2.6,1.5,3.5C87.6,17.7,88.5,18.3,88.8,18.5z"/>
			<path class="st2" d="M93.3,46.8c-1,0-1.9,0.1-2.7,0.1c0.1,0.7,0.2,1.6,0.3,1.8c0,0.5,0,1.1,0.1,1.6c0.1,1,0,2.1,0,3.2
				c0,0.5,0,1,0.1,1.6c0.1,0.5,0.1,1.1,0.4,1.5c0.1,0.2,0.3,0.3,0.5,0.5c0.1,0.1,0.2,0.2,0.4,0.4c0.1,0,0.2,0.1,0.3,0.2
				c0.1,0.1,0.1,0.4,0.1,0.6c0.1,0.5,0.1,1,0.1,1.4c0,0.5,0,1-0.1,1.5c0,0.4-0.1,1,0.2,1.4c0.4,0.6,0.6-1,0.6-1.2
				c0-0.9-0.1-1.8,0.1-2.7c0.1-0.4,0-1,0.3-1.4c0.1-0.2,0.4-0.3,0.6-0.4c0.2-0.1,0.4-0.3,0.6-0.5c0.2-0.2,0.4-0.5,0.4-0.8
				c0.1-0.3,0.2-0.7,0.3-1c0-0.1,0.1-0.3,0.1-0.4c0-0.3,0-0.6,0-0.9c0-0.3,0-0.6,0-0.9c0-0.2,0-0.4,0-0.6c0-0.1,0-0.3,0-0.4
				c0,0,0,0-0.1,0c0.5-0.9,0.5-2,0.6-3c0-0.2,0-0.5,0.1-0.6c0-0.1,0.1-0.5,0.2-0.8C95.7,46.9,94.6,46.8,93.3,46.8z"/>
			<path class="st2" d="M118.5,23.3c-0.3-0.3-0.7-0.4-1-0.7c-0.4-0.3-1-0.3-1.5-0.3c-0.1,0-0.1,0-0.2,0c-0.3,0.1-0.5,0.3-0.5,0.6
				c0,0.4-0.9,3.4-1.9,4.1c-0.9,0.6-0.7,0.2-0.4-0.2c0.3-0.4,1-2.3,1.1-3.5c0.1-0.9-0.5-2.2-0.9-2.9c0,0,0,0,0,0
				c-0.1-0.1-0.2-0.2-0.3-0.4c-0.1-0.2-0.1-0.3-0.3-0.3c-0.2-0.1-0.3-0.2-0.5-0.3c-0.2-0.1-0.4-0.2-0.5-0.3
				c-0.3-0.2-0.8-0.4-1.2-0.4c-0.4,0-0.9-0.1-1.4-0.1c-0.1,0-0.2,0-0.4,0c-0.1,0-0.2,0.1-0.3,0.1c-0.4,0-0.8,0-1.2,0.1
				c-0.2,0-0.4,0.1-0.6,0.2c-0.2,0.1-0.3,0.3-0.5,0.4c-0.2,0.1-0.3,0.3-0.6,0.3c-0.2,0.1-0.3,0.2-0.5,0.3c-0.3,0.2-0.5,0.5-0.7,0.8
				c-0.1,0.2-0.3,0.4-0.4,0.7c0,0.2-0.1,0.4-0.2,0.6c-0.1,0.1-0.1,0.2-0.1,0.2c-0.1,0.1-0.2,0.1-0.2,0.2c-0.1,0.1-0.2,0.3-0.3,0.5
				c-0.4,0.5-0.9,0.9-1.3,1.4c-0.1,0.1-0.1,0.3-0.2,0.4c0,0.1,0,0.2-0.1,0.3c-0.1,0.2-0.2,0.5-0.3,0.6c-0.1,0.2-0.3,0.4-0.4,0.6
				c-0.1,0.3-0.3,0.5-0.3,0.8c-0.1,0.3-0.2,0.5-0.3,0.8c-0.3,0.6-0.5,1.3-0.8,1.9c-0.1,0.3,0,0.6-0.1,0.9c-0.1,0.3-0.4,0.5-0.5,0.7
				c-0.1,0.2-0.1,0.4-0.2,0.5c-0.1,0.2-0.1,0.5-0.2,0.7c-0.1,0.2-0.1,0.4-0.1,0.5c0.4-0.1,0.8-0.2,1.3-0.1c0.6-0.7,1.4-1.2,2-1.6
				l1.6,0.4c0-0.1,0-0.1,0.1-0.2c0.3-0.5,1.7-3.5,1.8-3.8c0-0.1,0-0.3-0.1-0.5c-0.2-0.8-0.3-1.6,0-1.9c0.2-0.3,0.3-1.2,0.3-1.7
				c0,0,0-1.1,0.2-1.8c0.2-1,0.4-1,0.5-1c0.1,0,0.1,0,0.1,0.1c0.1,0.1,0.1,0.1-0.2,1c-0.1,0.3,0.1,0.9,0.2,1.2
				c0.2-0.2,0.7-0.5,1.2-0.9c0,0,0.1,0,0.1,0c0,0,0,0,0.1,0c0.3,0,0.4,0.1,0.4,0.2c0.1,0.2-0.1,0.4-0.3,0.5
				c-0.4,0.3-1.1,0.9-1.5,1.7c-0.2,0.4-0.1,1.3,0,1.9c0,0.2,0,0.3,0,0.4c0,0.3,0.3,1.5,0.6,1.6c0,0,0.1-0.2,0.2-0.6
				c0.1-0.5,0.8-1.1,0.8-1.1c0.1,0,0.1-0.1,0.2,0c0.1,0,0.1,0.1,0.1,0.2c0,0.1-0.2,0.6-0.4,0.9c-0.2,0.1-0.3,1.2,0.3,2.5
				c0.3,0.6,0.8,1.3,1.2,1.8c0.1,0.1,0.2,0.2,0.3,0.3c0.1,0.2,0.3,0.4,0.5,0.5c0.2,0.1,0.5,0.3,0.7,0.4c0.2,0.1,0.3,0.1,0.5,0.2
				c0.2,0.1,1.1,0.4,1.1,0c0-0.1-0.3-0.3-0.3-0.3c-0.1-0.3,0.1-0.4,0.2-0.5c0.1-0.2,0.3-0.2,0.5-0.2c0.2-0.1,0.5-0.2,0.7-0.3
				c0.4-0.1,0.8-0.4,1.2-0.6c0.3-0.3,0.5-0.5,0.7-0.8c0.1-0.3,0.4-1.2,0.2-1.8c-0.2-0.5-0.1-0.6-0.1-0.6c0,0,0.1-0.1,0.2-0.1
				c0.1,0,0.2,0,0.4,0.7c0,0.1,0,0.2,0,0.3c0.1,0.4,0.1,0.7,0.4,0.8c0.2,0,0.4,0,0.6-0.1c0.3-0.1,0.6-0.3,0.8-0.5
				c0.2-0.2,0.4-0.3,0.5-0.5c0.1-0.1,0.2-0.3,0.3-0.4c0.1-0.1,0.1-0.1,0.2-0.2c0.3-0.4,0.3-1,0.3-1.5c0-0.1,0-0.1,0-0.2
				c0-0.1,0-0.2-0.1-0.3c-0.1-0.2-0.2-0.4-0.4-0.6c-0.1-0.1-0.2-0.1-0.2-0.2l-0.4-0.2c-0.1-0.1-0.2-0.1-0.3-0.1l0,0
				c-0.1,0-0.3-0.1-0.3-0.2c0-0.1,0.1-0.2,0.2-0.2c0.1,0,0.2,0,0.2,0.1c0.2,0,0.4,0.2,0.5,0.3c0.2,0.1,0.3,0.2,0.4,0.3
				c0.1,0.1,0.2,0.1,0.3,0.1c0.3,0.1,0.5-0.2,0.5-0.2c0,0,0,0,0,0c0-0.1,0.1-0.2,0.1-0.2c0.1-0.2,0.1-0.5,0.1-0.7
				C119.3,24.3,118.9,23.6,118.5,23.3z"/>
			<path class="st2" d="M104.7,59.2c0,0-1-2.4-1.1-2.4c-0.1-0.2-0.2-0.5-0.3-0.7c-0.1-0.3,0.2-0.5,0.3-0.7c0.1-0.3,0.3-0.7,0.3-1.1
				c0-0.2,0-0.5,0-0.8c0-0.2-0.1-0.5-0.2-0.7c0-0.2,0-0.3-0.1-0.5c-0.1-0.3-0.2-0.7-0.2-1c-0.1-0.5-0.3-1.1-0.4-1.6
				c-0.1-0.2-0.1-0.5-0.2-0.8l-0.4-0.1c-0.6-0.5-2.2-1.3-5-1.7c0.1,0.4,0.1,0.8,0.2,0.9c0.1,0.2,0.2,0.4,0.3,0.6
				c0.1,0.3,0.4,0.5,0.5,0.8c0.1,0.3,0.1,0.6,0.2,0.9c0.1,0.4,0.2,0.7,0.4,1c0.1,0.2,0.3,0.4,0.3,0.6c0,0.2-0.1,0.5,0,0.7
				c0,0.2,0.2,0.3,0.2,0.5c0.1,0.2,0.1,0.4,0.3,0.5c0.4,0.5,0.7,1,1.2,1.4c0.3,0.3,0.7,0.6,1,0.8c0.2,0.1,0.4,0.2,0.5,0.4
				c0.1,0.2,0.1,0.5,0.2,0.7c0.1,0.2,0.4,0.5,0.3,0.8c0.2-0.1,0.4,0.4,0.4,0.6c0.1,0.2,0.2,0.5,0.3,0.7c0.2,0.2,0.4,0.6,0.6,0.8
				c0.1,0.1,0.2,0.1,0.3,0.1c0.2,0,0.1-0.1,0.1-0.3C104.8,59.6,104.7,59.4,104.7,59.2z"/>
			<path class="st2" d="M75.8,31.7c0.2,0.1,0.5,0.1,0.7,0.3c0.1,0.1,0.2,0.3,0.3,0.5c0,0.1,0,0.3,0.1,0.3c0.1,0.1,0.4,0.1,0.5,0
				c0.2-0.1,0.2-0.2,0.4-0.3c0.1-0.1,0.2-0.1,0.2-0.1c0,0,0-0.1,0-0.1c0,0,2.2-1.4,2.4-3.1c0.2-1.7,0-2.4,0-2.4c0-0.1,0-0.2,0.1-0.2
				c0.1,0,0.2,0,0.2,0.1c0,0,0.3,0.4,0.4,1.1c0.1,0.3,0.1,0.5,0.2,0.6c0.3-0.4,0.8-1.3,0.8-2.1c0-0.3,0-0.6,0-0.9
				c0-0.7,0.1-1.2-0.2-1.8c-0.4-0.8-0.6-1-0.6-1c-0.1-0.1-0.1-0.2,0-0.2c0.1-0.1,0.2-0.1,0.2,0c0.1,0.1,1.4,1.1,1.6,1.7
				c0.1,0.4,0.1,1.7,0,3c0,0.3,0,0.5,0,0.6c0,0.3,0.4,2,0.8,2.7c0.1,0.3,0.3,0.8,0.5,1.3l1.5-0.3c0.7,0.3,1.5,0.9,2,1.6
				c0.4,0,0.8,0,1.2,0.1c0,0,0,0,0-0.1c0-0.1,0.1-0.2,0.1-0.3c0-0.2-0.1-0.4-0.2-0.6c-0.1-0.3-0.2-0.6-0.4-0.9
				c-0.1-0.1-0.1-0.3-0.1-0.4c0-0.1-0.1-0.1-0.1-0.2c-0.1-0.2-0.1-0.4-0.1-0.6c0-0.4-0.1-0.7-0.2-1.1c-0.1-0.3-0.2-0.5-0.2-0.8
				c-0.1-0.2-0.1-0.4-0.2-0.6c-0.1-0.1-0.1-0.3-0.2-0.4c-0.1-0.2-0.3-0.1-0.4-0.4c-0.1-0.2,0-0.5-0.2-0.7c-0.2-0.4-0.5-0.7-0.7-1.2
				c-0.1-0.3-0.2-0.7-0.3-1c-0.1-0.3-0.2-0.5-0.4-0.8c-0.2-0.2-0.2-0.4-0.2-0.7c0-0.1,0-0.2-0.1-0.3c-0.1-0.2-0.1-0.4-0.3-0.5
				c-0.1,0-0.1,0-0.2-0.1c-0.1-0.1-0.2-0.2-0.2-0.3c-0.2-0.3-0.3-0.6-0.4-0.9c-0.1-0.4-0.4-0.6-0.7-0.9c-0.1-0.1-0.3-0.2-0.4-0.3
				c-0.1-0.1-0.2-0.2-0.3-0.2c-0.1-0.1-0.2-0.1-0.3-0.2c-0.4-0.3-0.8-0.6-1.2-0.7c-0.2,0-0.3-0.1-0.5-0.2c-0.3-0.1-0.6-0.2-0.9-0.2
				c-0.3,0-0.6-0.1-0.9-0.1c-0.2,0-0.4,0-0.6,0c-0.2,0-0.5,0-0.7,0c-0.3,0.1-0.6,0.2-0.9,0.2c-0.4,0.1-0.7,0.4-1,0.7
				c-0.3,0.2-0.6,0.4-0.9,0.7c-0.7,0.8-1,1.7-1,2.8c0,1.5,0.6,3,1.1,3.9c0.2,0.4,0.1,0.8,0.1,0.8s-0.3-0.6-0.7-1.2
				c-0.4-0.6-0.5-0.2-1.2-1.8c-0.5-1-0.2-2.3,0.1-3.1c-0.1,0.1-0.2,0.1-0.3,0.1c-0.1,0-0.2,0-0.3,0c-0.4,0.1-0.8,0.2-1.2,0.3
				c-0.3,0.1-0.6,0.2-0.9,0.3c-0.5,0.2-0.8,0.6-1.1,0.9c-0.3,0.4-0.5,1-0.6,1.5c0,0.2,0,0.3,0,0.5c0,0.3,0.2,0.6,0.2,0.9
				c0,0.1,0.1,0.2,0.2,0.3c0.1,0.2,0.1,0.5,0.1,0.7c0.1,0.9,0.3,1.9,1.1,2.6c0.2,0.2,0.4,0.2,0.7,0.3c0.3,0.2,0.6,0.4,1,0.5
				c0.5,0.2,1,0.1,1.4,0.4c0.2,0.2,0.3,0.5,0.6,0.7c0.1,0.1,0.3,0.2,0.4,0.2c0.2,0.1,0.4,0.3,0.6,0.4C75.2,31.5,75.5,31.6,75.8,31.7
				z"/>
			<path class="st2" d="M84.2,48.9L84,49c0,0.2,0,0.3-0.1,0.5c-0.2,0.8-0.5,1.5-0.6,2.3c-0.1,0.3-0.2,0.5-0.3,0.8
				c-0.2,0.5-0.2,1,0,1.5c0.1,0.7,0.6,1.6,0.4,2.4c-0.1,0.2-0.2,0.4-0.3,0.7c-0.2,0.3-0.4,0.7-0.6,1c-0.2,0.3-0.3,0.6-0.5,0.8
				c-0.1,0.2-0.4,0.6,0,0.7c0.3,0,0.4-0.2,0.5-0.3c0.1-0.2,0.3-0.3,0.4-0.5c0.1-0.2,0.3-0.4,0.4-0.5c0.1-0.2,0.2-0.4,0.3-0.6
				c0.1-0.3,0.4-0.6,0.5-0.9c0.1-0.2,0.3-0.5,0.5-0.6c0.3-0.2,0.6-0.3,1-0.4c0.4-0.2,0.7-0.5,0.9-0.9c0.2-0.3,0.4-0.6,0.6-0.9
				c0.2-0.4,0.5-0.8,0.6-1.2c0.1-0.3,0.3-0.7,0.4-1c0-0.2,0.1-0.5,0.2-0.7c0.2-0.6,0.3-1.2,0.5-1.8c0.1-0.2,0.2-0.5,0.3-0.7
				c0.1-0.2,0.1-0.5,0.3-0.8c0.1-0.1,0.2-0.4,0.3-0.7C86.6,47.5,84.8,48.4,84.2,48.9z"/>
		</g>
	</g>
</g>
<g>
	<path class="st2" d="M25.9,20c-1.8,1.4-4.8,3.5-4.8,4.4c-0.2,2.3,0.3,5,0.5,6.4c0.1,0.4,0.2,1.7,0.4,3.3c1.1-0.1,2.4-0.1,3.7-0.2
		c-0.1-2.1-0.2-3.8-0.2-3.8s-0.1-2.1,0-2.8c0.1-0.7,1.4-2,1.4-2s1-1,1.9-2l0.5-0.7c0,0-0.1,0-0.1,0c0,0-0.6-0.3-0.5-0.6
		c0-0.1,0.1-0.2,0.2-0.2c0.1,0,0.4,0.1,0.4,0.1c0.9,0,1.3-0.4,1.5-1c0.1-0.2,0.1-0.6,0.1-0.7l0-0.1c0-0.1,0-0.2,0-0.2
		c0.1-0.1,0.1-0.1,0.2-0.1c0.1,0,0.7,0.3,0.4,1.8c-0.1,0.6-1.2,1.5-2.1,2.1c0.8,0.9,1.6,1.6,1.6,1.6s1.3,1.3,1.4,2
		c0.1,0.7,0,2.8,0,2.8s-0.1,1.8-0.2,3.8c1.3,0,2.5,0.1,3.7,0.2c0.2-1.6,0.4-2.9,0.4-3.3c0.2-1.4,0.7-4.1,0.5-6.4
		c-0.1-0.9-3-3-4.8-4.4c1.6-1.7,4-4.4,4.3-5.9c0.4-2.1-0.7-3.7-3.1-4.7c-2.3-0.9-3.7-0.3-4.2,0c-0.5-0.3-1.9-0.9-4.2,0
		c-2.4,1-3.5,2.6-3.1,4.7C21.9,15.5,24.3,18.3,25.9,20z M25.9,11.7c0.5-0.7,1.5-1.4,2.1-1.7c0.2-0.1,0.7-0.3,1-0.4
		c0.3,0.1,0.7,0.3,1,0.4c0.6,0.3,1.6,1,2.1,1.7c0.6,0.8,0.2,2.7-0.7,3.7c-0.3,0.4-1.3,1.2-2.3,2l-0.4,0.4c0.3,0,0.4,0,0.6,0.1
		c0.6,0.3,0.9,0.8,0.9,1c0,0.1-0.1,0.2-0.2,0.2c-0.1,0-0.2-0.1-0.3-0.1c0,0-0.3-0.1-0.7-0.1c-0.3,0-1,0.1-1.2,0.7
		c-0.2,0.6,0.2,1.3,0.3,1.4c0,0,0.1,0.1,0.1,0.2c0,0.1-0.1,0.2-0.2,0.2c0,0,0,0,0,0c0,0-0.1,0-0.1,0l-0.2-0.1c0,0-1.4-0.4-1.1-2.1
		c0.1-0.6,1.1-1.4,1.9-2.1c-0.8-0.7-1.6-1.3-1.8-1.6C25.7,14.3,25.3,12.5,25.9,11.7z"/>
	<path class="st2" d="M16.1,46.7c-1.4,0.2-2.5,0.5-3.3,0.8v6.7c0,0-0.1,2.1,1.7,2.1c1.8,0,1.6-2.1,1.6-2.1V46.7z"/>
	<path class="st2" d="M47.7,14.5h-7c-1.1,0-1.9,0.8-1.9,0.8l-2.7,2.9c-0.8,0.8-0.8,1.7-0.8,1.7v0.9h4.9c1.1,0,1.1,1.1,1.1,1.1v8.5
		v4.2c1.3,0.2,2.4,0.4,3.3,0.7V21.9c0-1.1,1.1-1.1,1.1-1.1h3v-5.2C48.8,14.5,47.7,14.5,47.7,14.5z"/>
	<path class="st2" d="M12.8,21.9v13.3c0.9-0.2,2-0.5,3.3-0.7v-4.1v-8.5c0,0,0-1.1,1.1-1.1h4.9v-0.9c0,0,0-0.9-0.8-1.7l-2.7-2.9
		c0,0-0.8-0.8-1.9-0.8h-7c0,0-1.1,0-1.1,1.1v5.2h3C11.7,20.8,12.8,20.8,12.8,21.9z"/>
	<path class="st2" d="M41.4,46.7v7.4c0,0-0.2,2.1,1.6,2.1c1.8,0,1.7-2.1,1.7-2.1v-6.7C43.9,47.2,42.8,46.9,41.4,46.7z"/>
	<path class="st2" d="M26.4,45.8c-1,0-1.9,0-2.8,0.1c0.3,2.5,1,9.2,1,10.6c0,1.5-0.5,2.9-0.6,3.3c-0.1,0.7-0.3,1.8,0.4,2
		c0.7,0.1,1.2-0.5,1.4-0.9c0.2-0.4,0.7-1.6,0.9-3.3c0.1-0.8-0.4-8.9-0.4-9.5C26.5,47.8,26.5,46.9,26.4,45.8z"/>
	<path class="st2" d="M33.2,56.5c0-1.3,0.7-8,1-10.6c-0.9,0-1.8-0.1-2.7-0.1c-0.1,1.1-0.1,2-0.1,2.2c0,0.6-0.5,8.7-0.4,9.5
		c0.2,1.8,0.8,2.9,0.9,3.3c0.2,0.4,0.7,1,1.4,0.9c0.7-0.1,0.6-1.3,0.4-2C33.7,59.4,33.2,58,33.2,56.5z"/>
</g>
<path class="st3" d="M28.7,36.4c-16,0-19.2,2.8-19.2,2.8l0.3,7c0,0,2.9-2.9,18.9-2.9c16,0,19,2.9,19,2.9l0.3-7
	C48,39.2,44.8,36.4,28.7,36.4z M31.3,41.3l-1.7-0.7l0.7,1.7h-3l0.7-1.7l-1.7,0.7v-3l1.7,0.7l-0.7-1.7h3L29.5,39l1.7-0.7V41.3z"/>
<g>
	<path class="st0" d="M168.3,15.1l0.5,0c3.3,0.3,3.5,0.8,3.7,2.2c0.2,1.3,0.3,3.3,0.3,7V28c0,5.8-1,12.4-8.5,12.4
		c-5.7,0-8.6-3.6-8.6-10.8V19.4c0-4,0.3-4,3.4-4.2l0.5,0v-1.6h-12.6v1.6l0.5,0c3.3,0.3,3.3,0.3,3.3,4.2v11.3c0,5.1,1.4,8.4,4.4,10.5
		c1.8,1.3,4.5,2.1,7.5,2.1c3.6,0,6.6-1.1,8.7-3.1c2.5-2.5,3.6-5.9,3.6-11.4v-4.3c0-3.8,0.1-5.7,0.2-6.8c0.2-1.6,0.6-2.1,3.4-2.4
		l0.5-0.1v-1.6h-11V15.1z"/>
	<path class="st0" d="M202.3,15.2l0.5,0c3.3,0.2,3.8,0.7,4,2.5c0.2,1.4,0.2,3.5,0.2,6.9v10.5l-19.7-21.5H180v1.6l0.5,0
		c2.4,0.2,2.8,0.5,3.8,1.6c0.7,0.8,0.9,1.1,0.9,4.4v10c0,3.9-0.2,5.9-0.3,7.2l0,0.2c-0.2,2-0.8,2.5-3.5,2.7l-0.5,0v1.6h11.2v-1.6
		l-0.5,0c-3.1-0.3-3.6-0.6-3.8-2.7c-0.2-1.6-0.3-4-0.3-7.3V20.6l20.1,22.5l0.2,0.2h1.6V24.6c0-3.8,0.1-5.6,0.2-7
		c0.2-1.8,0.7-2.2,3.2-2.4l0.5,0v-1.6h-10.9V15.2z"/>
	<path class="st0" d="M214.1,15.2l0.5,0c3.5,0.2,3.6,0.4,3.6,3.8v18.3c0,3.4-0.1,3.6-3.6,3.8l-0.5,0v1.6h13.2v-1.6l-0.5,0
		c-3.5-0.2-3.7-0.4-3.7-3.8V19c0-3.4,0.1-3.6,3.7-3.8l0.5,0v-1.6h-13.2V15.2z"/>
	<path class="st0" d="M260.2,13.6h-11v1.6l0.5,0.1c1.4,0.2,2.8,0.4,3.1,0.8c0.2,0.3-0.1,1.1-0.3,1.9c-2,5.8-5.4,13.8-7.3,18
		c-3.2-7.6-6.5-15.6-7.7-18.7c-0.2-0.5-0.4-1.1-0.2-1.3c0.2-0.4,1.9-0.6,2.6-0.6l0.5-0.1v-1.6h-12.2v1.6l0.5,0
		c2.5,0.2,2.9,0.4,4.4,4c3.1,7.3,6.5,15.6,9.7,23.9l0.1,0.3h1.5l0.1-0.3c3.7-9.4,8.7-20.5,10.1-23.6c1.7-3.8,2.1-4,5-4.3l0.5-0.1
		V13.6z"/>
	<path class="st0" d="M282.6,35.5c-0.7,1.6-1.4,3-2.1,3.8c-0.9,1-1.5,1.5-6,1.5c-2.2,0-3.8,0-4.6-0.6c-0.5-0.3-0.8-0.9-0.8-3v-8.4
		h4.3c4,0,4.1,0.4,4.5,3l0.1,0.5h1.6v-9H278l-0.1,0.4c-0.5,2.5-0.6,2.8-4.6,2.8h-4.2V16.4c0-0.2,0-0.6,0-0.7c0,0,0.2-0.1,0.8-0.1
		h3.2c3.7,0,4.9,0.2,5.7,1.2c0.6,0.7,1,1.7,1.4,3.3l0.1,0.5l1.7-0.3l0-0.5c-0.1-1.4-0.3-4.2-0.3-5.6v-0.6h-21.3v1.6l0.5,0
		c3.3,0.3,3.3,0.3,3.3,4.1v18c0,3.4-0.2,3.5-4.1,3.8l-0.5,0v1.6h22.9l0.1-0.4c0.5-1.6,1.4-5,1.6-6.4l0.1-0.5l-1.7-0.3L282.6,35.5z"
		/>
	<path class="st0" d="M309.7,39.5c-1.2-1.3-2.6-2.9-4-4.9c-1.3-1.7-3.1-4.2-4-5.8c4-1.7,6-4.3,6-7.6c0-2.6-1.1-4.7-3.2-6
		c-1.8-1.1-4.1-1.6-7.9-1.6h-11.8v1.6l0.5,0c3.3,0.3,3.4,0.3,3.4,3.7v18.5c0,3.4-0.1,3.6-3.6,3.8l-0.5,0v1.6h13v-1.6l-0.5,0
		c-3.4-0.2-3.5-0.4-3.5-3.8v-7.3h0.7c2.2,0,2.8,0.5,3.6,1.7c0.6,0.8,1.2,1.7,1.8,2.6c1.1,1.6,2.1,3.2,3.2,4.6
		c2.2,2.9,4.3,3.9,8.3,4.1c0.4,0,0.9,0,1.3,0h0.4l0.3-1.4l-0.5-0.1C311.8,41.3,311.1,40.9,309.7,39.5z M293.6,17.3
		c0-1.4,0.2-1.5,0.2-1.5c0.1-0.1,1-0.2,2.4-0.2c3.9,0,6.2,2.4,6.2,6.3c0,2.4-0.8,4.1-2.4,5.3c-1.1,0.8-2.4,1.1-4.9,1.1h-1.5V17.3z"
		/>
	<path class="st0" d="M324.2,25.9l-0.3-0.2c-4.1-2-5.9-3.4-5.9-6.3c0-2.8,1.9-4.6,4.9-4.6c3,0,5,1.7,6.2,5.4l0.2,0.5l1.6-0.3
		l-0.2-1.2c-0.3-2-0.6-3.5-0.7-4.9l0-0.4l-0.4-0.1c-0.2-0.1-0.5-0.1-0.7-0.2c-1.2-0.3-2.9-0.7-5.2-0.7c-6.6,0-10.1,4.1-10.1,8.1
		c0,4.8,4.6,7.2,7.4,8.7l0.7,0.4c3.5,1.9,5.9,3.3,5.9,6.2c0,3.1-2.1,5-5.4,5c-5.9,0-7.5-6.1-7.7-6.8l-0.1-0.6l-1.6,0.6l0,0.4
		c0.1,1.1,0.8,5.9,1.2,6.7l0.1,0.2l0.2,0.1c0.5,0.2,1.3,0.5,2.6,0.9l0.2,0.1c1,0.3,2.5,0.6,4.4,0.6c6.1,0,10.8-3.6,10.8-8.5
		C332.2,29.9,327.9,27.8,324.2,25.9z"/>
	<path class="st0" d="M333.4,15.2l0.5,0c3.5,0.2,3.6,0.4,3.6,3.8v18.3c0,3.4-0.1,3.6-3.6,3.8l-0.5,0v1.6h13.2v-1.6l-0.5,0
		c-3.5-0.2-3.7-0.4-3.7-3.8V19c0-3.4,0.1-3.6,3.7-3.8l0.5,0v-1.6h-13.2V15.2z"/>
	<path class="st0" d="M392.9,13.6v1.6l0.5,0c0.9,0.1,2.6,0.3,2.8,0.6c0.1,0.3-0.3,1.2-0.5,1.6c-1.3,2.5-3.9,7-5.7,9.8l-0.5-0.9
		c-1.8-3-3.9-6.5-5.7-9.8c-0.3-0.5-0.3-0.7-0.3-0.7c0-0.1,0.3-0.3,2.4-0.6l0.5-0.1v-1.6h-11.6c0-0.2,0-0.4,0-0.5v-0.6h-1.3l-0.2,0.2
		c-0.6,0.7-0.9,0.9-2,0.9h-19c-1.3,0-1.7-0.1-2.1-0.8l-0.2-0.3h-1.3l0,0.5c-0.1,2.6-0.3,5.3-0.6,7.4l-0.1,0.6h1.7l0.1-0.4
		c0.4-1.7,0.9-2.8,1.3-3.6c0.5-0.9,1.3-1.4,6-1.4h2v21.8c0,3-0.1,3.5-3.9,3.7l-0.5,0v1.6h13.8v-1.6l-0.5,0c-4-0.2-4-0.7-4-3.7V15.6
		h2.7c4.1,0,4.8,0.4,5.4,1.3c0.4,0.6,0.8,1.6,1.3,3.6l0.1,0.5l1.7-0.2l-0.1-0.5c-0.2-1.6-0.3-3.4-0.4-5.1l0.3,0
		c2.5,0.1,2.6,0.3,4.6,3.6c2.4,3.8,4.3,7,5.8,9.8c0.7,1.3,0.8,1.7,0.8,2.4v6.3c0,3.5-0.1,3.6-3.8,3.9l-0.5,0v1.6h13.6v-1.6l-0.5,0
		c-3.8-0.2-3.9-0.4-3.9-3.9v-6.3c0-1.1,0-1.6,0.8-2.8c2.2-3.8,3.9-6.6,6.6-10.4l0.1-0.2c1.2-1.7,1.5-2,4.4-2.4l0.5-0.1v-1.6H392.9z"
		/>
</g>
<g>
	<path class="st0" d="M161.7,62.1c0-2.7-1.7-4.3-4.4-4.3c-0.8,0-2.1,0.3-3.2,0.8c-2.6,1.1-5.1,3.9-5.1,7.8c0,2.8,1.6,4.4,4.3,4.4
		c1.5,0,3.3-0.6,4.9-1.8C160.3,67.5,161.7,64.8,161.7,62.1z M155.2,69.2c-0.3,0.1-0.5,0.1-0.8,0.1c-1.4,0-2.3-1.2-2.3-3.1
		c0-4.4,2.3-6.5,3.4-6.9c0.3-0.1,0.6-0.2,1-0.2h0c1.3,0,2.1,1.2,2.1,3.1C158.6,65.8,156.8,68.7,155.2,69.2z"/>
	<path class="st0" d="M172.8,50c-1.4,0-3.4,1-4.8,2.3c-1.3,1.2-2.2,3-2.9,5.9h-1.8l-1.2,0.8l0.1,0.7h2.5c-0.4,1.7-0.7,3.2-1.1,5.2
		l-0.8,3.7c-0.8,4-1.5,6.2-2.1,6.8c-0.3,0.3-0.8,0.5-1.3,0.5c-0.5,0-1.5-0.3-2-0.6c-0.3-0.2-0.6-0.2-0.9,0c-0.5,0.3-1,0.8-1,1.3
		c0,0.8,1.2,1.4,2.3,1.4c1.2,0,2.6-0.6,3.8-1.7c2.2-1.9,3-3.6,4.1-8.3c0.9-3.5,1.2-5.2,1.8-8.1l0-0.1l3-0.3l1.4-1.2H168
		c0.9-4.6,1.8-6.5,3.1-6.5c0.6,0,1.2,0.3,1.7,0.8c0.3,0.3,0.7,0.4,1.1,0.1c0.2-0.2,0.9-0.7,0.9-1.3c0-0.2-0.1-0.5-0.3-0.8
		C174.1,50.4,173.5,50,172.8,50z"/>
	<path class="st0" d="M197.4,53.2c-1.5-1-3.9-1.4-7.1-1.4h-10.2v1.1l0.3,0c2.8,0.2,2.9,0.3,2.9,3.1v14.8c0,2.8-0.1,2.9-3.2,3.1
		l-0.3,0v1.1h11.2V74l-0.3,0c-3.2-0.2-3.4-0.4-3.4-3.1v-5.7l2.7,0.6c0.4,0.1,1.2,0.1,1.7,0c4.1-0.4,8.4-2.6,8.4-7.4
		C200.2,56.2,199.3,54.4,197.4,53.2z M190,64.1c-1.1,0-2-0.1-2.6-0.3v-8.8c0-1,0.1-1.5,0.3-1.7c0.1-0.1,0.8-0.3,2-0.3
		c3.8,0,6,1.9,6,5.3C195.8,63.6,191.7,64.1,190,64.1z"/>
	<path class="st0" d="M212,59c-2,0-3.7,1.9-4.7,3.1v-3.4l-0.5,0.2c-2,0.7-3.6,1.2-5.5,1.4l-0.3,0v0.9l0.3,0c2.2,0.3,2.2,0.3,2.2,2.4
		v7.6c0,2.2-0.1,2.3-2.4,2.5l-0.3,0v1.1h9.9V74l-0.3,0c-3.1-0.2-3.1-0.4-3.1-2.5v-7c0.9-1.6,1.9-2.5,2.8-2.5c0.6,0,1,0.2,1.6,0.7
		c0.3,0.3,0.8,0.3,1.4,0.1c0.9-0.4,1.4-1.1,1.4-1.7C214.6,60.1,213.5,59,212,59z"/>
	<path class="st0" d="M219.7,55.6c1.1,0,2.1-0.8,2.1-1.8c0-1-0.9-1.8-2.1-1.8c-1.1,0-2,0.8-2,1.8C217.6,54.8,218.6,55.6,219.7,55.6z
		"/>
	<path class="st0" d="M221.7,71.4V58.8l-0.5,0.2c-1.6,0.6-3.4,1.1-5.4,1.3l-0.3,0v1l0.3,0c2.1,0.4,2.2,0.4,2.2,2.4v7.6
		c0,2.2-0.1,2.3-2.5,2.5l-0.3,0v1.1h9.5V74l-0.3,0C221.9,73.8,221.7,73.6,221.7,71.4z"/>
	<path class="st0" d="M243.5,71.4v-6.9c0-3.4-2.1-5.4-5.6-5.4c-1.3,0-2.2,0.4-3.4,1.1c-0.9,0.5-1.8,1-2.5,1.4v-2.7l-0.5,0.2
		c-1.6,0.6-3.3,1.1-5.4,1.4l-0.3,0v0.9l0.3,0.1c2.1,0.4,2.1,0.4,2.1,2.4v7.6c0,2.2-0.2,2.4-2.8,2.6l-0.3,0v1.1h9.5V74l-0.3,0
		c-2.2-0.2-2.4-0.3-2.4-2.5V63c1.1-0.8,2.7-1.6,4.2-1.6c2.4,0,3.5,1.2,3.5,3.7v5.9c0,2.6-0.2,2.7-2.6,2.9l-0.3,0v1.1h9.2V74l-0.3,0
		C243.6,73.8,243.5,73.7,243.5,71.4z"/>
	<path class="st0" d="M260.2,70.9c-1.9,1.5-3.2,1.8-4.9,1.8c-2.4,0-6.1-1.7-6.1-6.4c0-3.3,1.8-5.3,4.9-5.3c1.5,0,2.9,0.4,3.9,1.3
		c0.5,0.4,0.7,0.5,1.1,0.5c0.6,0,1.5-0.7,1.5-1.6c0-0.5-0.2-0.8-0.8-1.3c-0.7-0.5-2.1-1-3.8-1c-1.6,0-4.1,0.6-6.2,2
		c-2.9,1.9-4.3,4.3-4.3,7.1c0,3.6,3,7.4,8.4,7.4c2.3,0,4.9-1.4,7.1-3.7l0.2-0.2l-0.8-0.9L260.2,70.9z"/>
	<path class="st0" d="M277.6,64.2c0-2.4-2.6-5.2-6.3-5.2c-2,0-4.4,1-6.2,2.6c-1.8,1.7-2.8,3.8-2.8,6.2c0,3.7,2.6,7.6,8.3,7.6
		c1.3,0,4.3-0.8,6.7-3.6l0.2-0.2l-0.8-0.8l-0.2,0.2c-1.4,1.1-2.9,1.7-4.4,1.7c-1.7,0-3.3-0.6-4.4-1.8c-1.2-1.2-1.8-2.9-1.8-5
		c5-0.1,9.8-0.4,10.5-0.6C277.2,65.3,277.6,65,277.6,64.2z M273.2,64.3c-2.3,0.1-4.6,0.1-6.9,0.1c0.6-2.5,2.4-3.7,3.9-3.7h0
		c1,0,1.9,0.3,2.5,1c0.6,0.6,0.9,1.5,0.9,2.4C273.6,64.1,273.6,64.3,273.2,64.3z"/>
	<path class="st0" d="M304.9,69.3c-0.4,1-1.1,2.3-1.8,3.1c-0.9,0.9-1.6,1.2-5.4,1.2c-2,0-3.4,0-4.1-0.5c-0.5-0.3-0.8-0.8-0.8-2.5
		v-6.9h3.9c3.7,0,3.7,0.4,4.2,2.5l0.1,0.3h1.1v-7h-1.1l-0.1,0.3c-0.4,2-0.5,2.4-4.2,2.4h-3.8v-8.4c0-0.7,0-0.7,0.9-0.7h2.8
		c3.4,0,4.4,0.2,5.1,1c0.5,0.6,0.9,1.4,1.3,2.7l0.1,0.3l1.2-0.2l0-0.3c-0.1-1.2-0.3-3.4-0.3-4.5v-0.3h-18.5v1.1l0.3,0
		c2.9,0.3,3.1,0.3,3.1,3.4v14.5c0,2.7-0.1,2.9-3.7,3.2l-0.3,0v1.1h19.9l0.1-0.2c0.4-1.2,1.2-4,1.5-5.2l0.1-0.4l-1.2-0.2L304.9,69.3z
		"/>
	<path class="st0" d="M323.8,71.1v-22l-0.4,0.1c-1.4,0.4-4,1-6.1,1.2l-0.3,0v0.9l0.3,0c2.8,0.2,2.8,0.3,2.8,2.3v5.6
		c-0.9-0.2-1.9-0.2-2.5-0.2c-5.9,0-10.8,4-10.8,8.8c0,5.2,4.7,7.6,7.8,7.6c0.8,0,2-0.4,3.5-1.1l2-1v2.3l0.5-0.2
		c1.5-0.5,3.5-0.9,6-1.3l0.3,0v-1l-1.6-0.2C323.9,72.9,323.8,72.8,323.8,71.1z M320.1,71.9c-0.9,0.5-2.3,1.1-3.6,1.1
		c-2.8,0-5.5-2.1-5.5-6c0-5,3.3-6.3,5.2-6.3c1.7,0,3.1,0.6,4,1.7V71.9z"/>
	<path class="st0" d="M353.2,60.5v-1.1h-7.7v1.1l0.3,0c1.2,0.2,2.2,0.3,2.4,0.7c0.1,0.2,0.1,0.7-0.1,1.3c-0.7,2.4-1.6,4.8-2.4,7.1
		l-0.3,0.8c-1.9-3.9-3.4-7.2-4.9-10.5l-0.1-0.2h-1l-0.1,0.2c-1.5,3.7-3,7.1-4.5,10.3c-1.3-3-2.3-5.6-3.2-7.9c-0.2-0.5-0.3-1-0.2-1.1
		c0.2-0.3,1.2-0.4,2.2-0.6l0.3,0v-1.1h-8.9v1.1l0.3,0c1.8,0.2,2,0.3,2.6,2c1.7,4.3,3.4,8.5,5,12.7l0.1,0.2h1.1l0.1-0.2
		c1.2-2.9,2.4-5.6,3.7-8.4c0.3-0.6,0.6-1.3,0.9-1.9c0.5,1,1,2,1.4,3c1.2,2.5,2.4,4.9,3.5,7.4l0.1,0.2h1.1l1-2.5
		c1.6-4,3.2-8.1,4.1-10.1c0.8-1.7,0.9-2.1,2.9-2.3L353.2,60.5z"/>
	<path class="st0" d="M368.2,72.6c-0.3,0.2-0.8,0.3-1.2,0.3c-0.7,0-1.2-0.6-1.2-1.6v-6.7c0-2.2-0.6-3.6-2-4.6
		c-0.9-0.6-2.1-0.9-3.4-0.9c-2.1,0.4-4.9,1.7-6.2,2.5c-0.7,0.4-1.4,0.9-1.4,1.5c0,0.9,1.1,1.7,2,1.7c0.7,0,1.1-0.3,1.3-1
		c0.4-1.1,0.7-1.8,1.2-2.2c0.4-0.4,0.9-0.6,1.6-0.6c2.1,0,3.2,1.4,3.2,3.9v0.7c-1.2,0.7-3.8,1.5-6.1,2.1c-2.4,0.7-3.4,1.8-3.4,3.5
		c0,2.1,2.1,4.3,5.2,4.3c0.9,0,2.6-1,4.5-2.1c0.2,0.5,0.5,1,0.9,1.3c0.5,0.5,1.5,0.8,2.3,0.8h0.1l3.5-2l-0.6-1.1L368.2,72.6z
		 M362.1,72c-0.8,0.7-2,1-2.8,1c-1.1,0-2.7-0.8-2.7-2.5c0-1,0.6-1.6,2.3-2.3c0.3-0.1,0.8-0.3,1.3-0.5c0.7-0.3,1.4-0.5,1.9-0.8V72z"
		/>
	<path class="st0" d="M383.1,61c0-0.9-1-2-2.5-2c-1.9,0-3.7,1.9-4.6,3.1v-3.4l-0.5,0.2c-2,0.7-3.6,1.2-5.5,1.4l-0.3,0v0.9l0.3,0
		c2.2,0.3,2.2,0.3,2.2,2.4v7.6c0,2.2-0.1,2.3-2.4,2.5l-0.3,0v1.1h9.9V74l-0.3,0c-3.1-0.2-3.1-0.4-3.1-2.5v-7
		c0.9-1.6,1.9-2.5,2.8-2.5c0.6,0,1,0.2,1.6,0.7c0.3,0.3,0.8,0.3,1.4,0.1C382.5,62.3,383.1,61.7,383.1,61z"/>
	<path class="st0" d="M400.1,73c-1.4-0.2-1.4-0.3-1.4-1.9v-22l-0.4,0.1c-1.4,0.4-4,1-6.1,1.2l-0.3,0v0.9l0.3,0
		c2.8,0.2,2.8,0.3,2.8,2.3v5.6c-0.9-0.2-1.9-0.2-2.5-0.2c-5.9,0-10.8,4-10.8,8.8c0,5.2,4.7,7.6,7.8,7.6c0.8,0,2-0.4,3.5-1.1l2-1v2.3
		l0.5-0.2c1.5-0.5,3.5-0.9,6-1.3l0.3,0v-1L400.1,73z M394.9,71.9c-0.9,0.5-2.3,1.1-3.6,1.1c-2.8,0-5.5-2.1-5.5-6
		c0-5,3.3-6.3,5.2-6.3c1.7,0,3.1,0.6,4,1.7V71.9z"/>
</g>
<g>
	<path class="st0" d="M149,86.4l0.4,0c6.1,0.5,6.6,1,6.6,7.7v33.7c0,6.6-0.5,7.2-6.6,7.7l-0.4,0v1.8h21.3v-1.8l-0.4,0
		c-6.2-0.5-6.7-1-6.7-7.7V94.1c0-6.6,0.5-7.2,6.7-7.7l0.4,0v-1.8H149V86.4z"/>
	<path class="st0" d="M192,107.4l-0.6-0.3c-6.2-3.4-10.3-6.1-10.3-12.1c0-4.2,2.3-9,8.9-9c5.4,0,8.9,3.3,10.9,10.3l0.1,0.4l1.8-0.4
		l-0.2-1.2c-0.6-3.9-1-6.7-1.3-9.4l0-0.3l-0.3-0.1c-0.4-0.1-0.8-0.2-1.2-0.3c-2.1-0.6-4.9-1.4-8.8-1.4c-10.9,0-16.6,7.2-16.6,14.3
		c0,8.5,7.4,12.7,12.3,15.4c0.4,0.2,0.8,0.4,1.2,0.7c6.2,3.6,10.2,6.3,10.2,11.9c0,6-3.7,9.8-9.6,9.8c-7.9,0-12.2-7-13.5-13
		l-0.1-0.5l-1.8,0.7l0,0.3c0.2,2.2,1.4,10.7,2,12.1l0.1,0.1l0.1,0.1c0.9,0.5,2.2,1,4.3,1.6l0.4,0.1c1.8,0.5,4.2,1.1,7.3,1.1
		c11.6,0,17.8-7.7,17.8-15C205.2,114.5,198.2,110.7,192,107.4z"/>
	<path class="st0" d="M245.5,125.1l0.1-0.4l-1.9-0.4l-0.1,0.4c-1,3.2-2.3,5.8-3.9,7.7c-1.6,1.8-3.9,2.4-9.5,2.4
		c-3.7,0-6.3-0.2-7.7-1c-1.2-0.7-1.5-2.3-1.5-6.8V94c0-6.9,0.5-7.1,6.1-7.6l0.4,0v-1.8h-20.2v1.8l0.4,0c5.9,0.5,6.1,0.7,6.1,7.6
		v33.6c0,6.8-0.5,7.3-6.6,7.8l-0.4,0v1.8h35.8l0.1-0.3c0.5-1.6,1.1-4.4,1.7-7C244.8,127.9,245.2,126,245.5,125.1z"/>
	<path class="st0" d="M287.6,127.4c-5.6-15-10.9-29.7-15.8-43.6l-0.1-0.4l-1.9,0.7l-17.3,43.1c-2.8,7.1-3.9,7.8-8.4,8.2l-0.4,0v1.7
		h17.1v-1.7l-0.4,0c-2.9-0.3-4.7-0.6-5.3-1.5c-0.6-0.9-0.2-2.4,0.6-4.7l0.5-1.4c1-3.2,2.2-6.7,3.8-10.9H276l1.2,3.2
		c1.8,4.8,3.2,8.6,4,11.3c0.4,1.3,0.4,2.1,0.1,2.6c-0.5,0.8-2,1.1-4.5,1.5l-0.4,0v1.7h19.9v-1.7l-0.4,0
		C291.3,135,290.2,134.3,287.6,127.4z M275.1,113.9H261l1.2-3.2c2-5.3,4-10.7,6.2-16L275.1,113.9z"/>
	<path class="st0" d="M396.1,91.5c-4.8-4.6-12.2-6.8-22.8-6.8h-22h-0.5h-17.1v1.8l0.4,0c5.5,0.4,6.8,1.3,7.2,5.1
		c0.3,2.7,0.4,6.5,0.4,12.7v20.9l-34-40.4l-0.1-0.1h-11.7v1.7l0.4,0c4.2,0.4,4.9,1.1,6.7,3.1c1.4,1.7,1.6,2.4,1.6,8.4v18.4
		c0,7.3-0.3,11-0.5,13.3l0,0.3c-0.4,4.3-1.9,5.1-6.5,5.5l-0.4,0v1.8h18v-1.8l-0.4,0c-5.2-0.5-6.6-1.2-7-5.5
		c-0.3-2.9-0.5-7.3-0.5-13.6V95.5l35.1,42.5l0.1,0.1h1.9v-33.8c0-7,0.2-10.3,0.3-12.9c0.3-3.9,1.7-4.7,6-5l0.4,0v0
		c5.7,0.5,6.2,0.7,6.2,7.7v33.7c0,6.6-0.5,7.2-7,7.7l-0.4,0v1.8h18.8c10.1,0,18.5-2.3,24.3-6.8c6.5-4.9,9.9-12.4,9.9-21.5
		C403,101.8,400.6,95.8,396.1,91.5z M364.7,92.3c0-3.9,0.4-4.5,0.9-4.7c0.8-0.3,2.4-0.6,5.4-0.6c5.5,0,10,0.9,13.3,2.8
		c6.6,3.6,10.3,10.8,10.3,20.3c0,11.8-5.8,24.4-22.2,24.4c-5.1,0-7.8-1.2-7.8-7.2V92.3z"/>
</g>
</svg>
